<?xml version="1.0" encoding="utf-8"?>
<!-- Generator: Adobe Illustrator 19.2.1, SVG Export Plug-In . SVG Version: 6.00 Build 0)  -->
<svg version="1.1" id="layer" xmlns="http://www.w3.org/2000/svg" xmlns:xlink="http://www.w3.org/1999/xlink" x="0px" y="0px"
	 viewBox="0 0 652 652" style="enable-background:new 0 0 652 652;" xml:space="preserve">
<style type="text/css">
	.st0{fill:#BE9661;}
	.st1{fill:#FFFFFF;}
	.st2{fill-rule:evenodd;clip-rule:evenodd;fill:#58210E;}
</style>
<g>
	<path class="st0" d="M320.6,71.5c-193.9,0-351.1,111.9-351.1,250c0,138.1,157.2,250,351.1,250c193.9,0,351.1-111.9,351.1-250
		C671.7,183.5,514.5,71.5,320.6,71.5"/>
	<path class="st1" d="M320.6,89c-171.8,0-311,104.1-311,232.5c0,128.4,139.2,232.5,311,232.5c171.8,0,311-104.1,311-232.5
		C631.6,193.1,492.4,89,320.6,89"/>
	<path class="st2" d="M470.5,265.8c0.1-22.9,18.7-47.3,46.3-47.3c25.7,0,46.4,21.2,46.4,47.3c0,26.1-21.9,47.3-46.4,47.3
		C491.1,313.1,470.5,292,470.5,265.8 M483.9,268.2c-1.6-23.6,10.6-43.7,29.8-45.1c20.6-1.6,33.2,14.4,35.9,40.5
		c1.9,27.3-11.7,43.8-29.9,45.1C500.8,310.2,485.6,291.8,483.9,268.2"/>
	<path class="st2" d="M160.5,377.5c0.1-22.9,18.7-47.3,46.3-47.3c25.7,0,46.5,21.2,46.5,47.3c0,26.1-21.9,47.3-46.5,47.3
		C181.2,424.7,160.5,403.6,160.5,377.5 M174,379.8c-1.6-23.6,10.6-43.6,29.8-45.1c20.6-1.6,33.2,14.4,35.9,40.5
		c1.9,27.3-11.7,43.8-29.9,45.1C190.9,421.8,175.7,403.5,174,379.8"/>
	<path class="st2" d="M337.5,403.2c-9.2,13.7-23.2,21.6-34.2,21.6c-23.2,0-44.1-20.6-44.1-47.1c0-26.5,21.3-47.9,47.5-47.9
		c9,0,17.6,1.8,25.5,3.8l-4.4,20.4l-1.5-0.4c2.4-9.4-8.2-20.2-22.1-20.2c-20.4,0-31.4,18.2-31.4,40.7c0,18.7,9.7,34.4,22.9,39.2
		c1.3,0.5,20.4,9,40.6-11.5L337.5,403.2z"/>
	<path class="st2" d="M230,258.8c0,3.9-0.8,3.4,3.6,3.8c2.9,0.3,6.7-0.1,10.2-0.5c8.2-0.9,16.6-9.1,14.9-21.6
		c-2.1-15.1-11.1-17.4-17.1-17.9c-6.6-0.6-10.1,0.6-10.7,7.7C230.4,238.1,230,258.8,230,258.8 M209.8,220c5.7,0.7,39,0.2,41.1,0.2
		c2.1,0,20.5-1,20.2,17c-0.3,18.4-21.2,26.1-21.6,25.8c2.2,3.5,27.2,30.2,35.8,38.3c8.1,7.6,11,8.5,14.9,8.9l0,1.5
		c-20.5,4.5-28.1-6.1-32.2-10.4c-4.6-4.8-18.4-23.5-24.7-30.3c-5.5-6-10.9-4.9-13.4-5.1c-0.2,3,0.1,21.8,0.1,26.4
		c0.4,9,0.9,17.4,10.9,17.6v1.8c-0.9,0-13.9-0.4-15.1-0.3c-1.2,0.1-11.6-0.1-15.5,0.3l0-1.9c5-0.4,7.4-3,7.5-9.1
		c0.5-8.7,0.7-54.7,0.1-69.9c-0.3-5.8-2.4-8.8-8-8.8L209.8,220z"/>
	<path class="st2" d="M296.1,258.8c0,3.9-0.8,3.4,3.6,3.8c2.9,0.3,6.7-0.1,10.2-0.5c8.2-0.9,16.6-9.1,14.9-21.6
		c-2.1-15.1-11.1-17.4-17.1-17.9c-6.6-0.6-10.1,0.6-10.7,7.7C296.5,238.1,296.1,258.8,296.1,258.8 M275.9,220
		c5.7,0.7,39,0.2,41.1,0.2c2.1,0,20.5-1,20.2,17c-0.3,18.4-21.2,26.1-21.6,25.8c2.2,3.5,27.2,30.2,35.8,38.3
		c8.1,7.6,11,8.5,14.9,8.9v1.5c-20.5,4.5-28.1-6.1-32.2-10.4c-4.6-4.8-18.4-23.5-24.8-30.3c-5.5-6-10.9-4.9-13.4-5.1
		c-0.2,3-0.2,21.7,0.1,26.4c0.2,4.5,0.3,8.8,1.7,12c-4.4-2.3-10.8-8.5-13.7-12.9c0.3-16.7,0.4-48.6-0.1-60.7c-0.4-5.8-2.7-8.8-8-8.8
		L275.9,220z"/>
	<path class="st2" d="M421.3,258.8c0,3.9-0.8,3.4,3.6,3.8c2.9,0.3,6.7-0.1,10.2-0.5c8.2-0.9,16.6-9.1,14.9-21.6
		c-2.1-15.1-11.1-17.4-17.1-17.9c-6.6-0.6-10.1,0.6-10.7,7.7C421.7,238.1,421.3,258.8,421.3,258.8 M401.2,220
		c5.7,0.7,39,0.2,41.1,0.2c2.1,0,20.5-1,20.2,17c-0.3,18.4-21.2,26.1-21.6,25.8c2.2,3.5,27.2,30.2,35.8,38.3
		c8.1,7.6,11,8.5,14.9,8.9l0,1.5c-20.5,4.5-28.1-6.1-32.2-10.4c-4.6-4.8-18.4-23.5-24.8-30.3c-5.5-6-10.9-4.9-13.4-5.1
		c-0.2,3,0.1,21.8,0.1,26.4c0.4,9,0.9,17.4,10.9,17.6v1.8c-0.9,0-13.9-0.4-15.1-0.3c-1.2,0.1-11.6-0.1-15.5,0.3l0-1.9
		c5-0.4,7.4-3,7.5-9.1c0.5-8.7,0.8-54.7,0.1-69.9c-0.4-5.8-2.4-8.8-8-8.8L401.2,220z"/>
	<path class="st2" d="M499.5,370.9c0,3.9-0.8,3.4,3.6,3.8c2.9,0.2,6.7-0.1,10.3-0.5c8.2-0.9,16.6-9.1,14.8-21.5
		c-2.1-15.2-11.1-17.4-17.1-17.9c-6.5-0.6-10.1,0.6-10.7,7.7C499.9,350.3,499.5,370.9,499.5,370.9 M479.4,332.2
		c5.7,0.7,39,0.2,41.1,0.2c2.1,0,20.5-1,20.2,17c-0.3,18.4-21.2,26.1-21.6,25.8c2.2,3.5,27.2,30.2,35.8,38.3
		c8.1,7.6,11,8.5,14.9,8.9l0,1.5c-20.5,4.5-28.1-6.1-32.2-10.4c-4.6-4.8-18.5-23.5-24.8-30.3c-5.5-6-10.9-4.9-13.4-5.1
		c-0.2,3.1,0.1,21.8,0.1,26.5c0.4,9,0.9,17.4,10.9,17.6v1.8c-0.9,0-13.9-0.4-15.1-0.4c-1.2,0.1-11.6-0.1-15.6,0.4l0-1.9
		c5-0.4,7.4-3,7.5-9.1c0.5-8.7,0.8-54.7,0.1-69.9c-0.4-5.8-2.4-8.8-8-8.9L479.4,332.2z"/>
	<path class="st2" d="M111.5,370.4c0,3.9-0.8,3.4,3.6,3.8c2.9,0.3,6.7-0.2,10.3-0.5c8.2-0.9,16.6-9.1,14.8-21.5
		c-2.1-15.2-11.1-17.4-17.1-17.9c-6.6-0.5-10.1,0.6-10.7,7.7C111.8,349.7,111.5,370.4,111.5,370.4 M91.3,331.6
		c5.7,0.7,39,0.2,41.1,0.2c2.1,0,20.5-1,20.2,17c-0.3,18.4-21.2,26.1-21.6,25.8c2.2,3.5,27.3,30.2,35.9,38.3
		c8.1,7.6,11,8.5,14.9,8.9l0,1.5c-20.5,4.4-28.1-6.1-32.2-10.4c-4.6-4.8-18.4-23.5-24.7-30.3c-5.5-6-10.9-4.9-13.4-5.1
		c-0.2,3.1,0.1,21.8,0.1,26.4c0.4,9,0.9,17.4,11,17.6v1.8c-0.9,0-14-0.4-15.1-0.3c-1.2,0.1-11.6-0.1-15.6,0.3l0-1.9
		c5-0.4,7.4-3,7.5-9.1c0.5-8.7,0.8-54.7,0.1-69.9c-0.4-5.8-2.4-8.8-8-8.8L91.3,331.6z"/>
	<path class="st2" d="M88.8,221.1c18.6,0.7,47,1.5,59.5-1c-0.7,4.8-2.1,12.5-2.4,17.7l-1.7,0c0-11.9-9-12.3-24.3-13.6
		c-8.8-0.8-9,5-9.1,7.9c-0.3,3.9-0.4,26.1-0.5,28.9c8.7-0.1,34.2,0.8,42.5-4.1l0.5,1.4c-7.5,5.7-22.1,10.3-42.9,10
		c-0.3,3.6,0.2,27.8,0.7,32.3c1.1,9.1,8.3,9.1,11.1,9.2v1.9c-8.4-0.1-20.5-0.4-32.3,0v-1.8c3.1-0.5,8-0.2,8.5-9.2
		c0.8-8.6,0.8-55.1,0.1-69.3c-0.4-6.1-4-8.1-9.7-8.4V221.1z"/>
	<path class="st2" d="M178,310.8c-3.4-0.1-16,0.7-27.8,1l0-2c5-0.3,8.5-0.9,8.5-8.5c0.5-8.7,0.8-55.9,0.4-70.4
		c-0.3-5.9-2.5-8.6-7.2-8.7v-1.9c17.5,1.1,39.3,1.3,52-0.9c-0.6,4.5-1.8,12.6-2.2,17.5c0,0.1-1.9-0.1-1.9,0
		c0.8-12.6-10.9-12.3-19.5-13.2c-8.9-0.9-8.7,5.5-8.8,8.5c-0.3,3.9-0.6,23.6-0.7,26.4c11.8,0.7,28.2-0.4,34.2-4.3l0.8,1.3
		c-7.5,5.7-19,9.6-35.2,10.5c-0.2,3.1-0.1,21.8,0.1,26.5c0.3,4.7-0.9,13.8,11.8,13.7c12.7-0.1,23.8,0.7,29.4-11.9l1.7,0.6
		c-3.2,11.6-3.2,16.5-13.6,16.8C191.8,311.3,181.4,310.9,178,310.8"/>
	<path class="st2" d="M351.1,292.8c0.4-16.8,0.5-50.1,0.2-61.9c-0.3-5.9-2.4-8.8-7.2-8.7l0-1.9c17.5,1.1,39.2,1.3,51.9-0.9
		c-0.6,4.5-1.8,12.6-2.2,17.5c0,0.1-1.9-0.1-1.9,0c0.8-12.6-10.9-12.3-19.5-13.2c-8.9-0.9-8.6,5.5-8.8,8.5
		c-0.3,3.9-0.6,23.6-0.7,26.4c11.8,0.7,28.2-0.4,34.2-4.3l0.8,1.3c-7.5,5.7-19,9.6-35.1,10.5c-0.2,3.1-0.2,21.8,0.1,26.5
		c0.3,4.7-0.9,13.8,11.8,13.7c12.7-0.1,23.8,0.7,29.4-11.9l1.7,0.6c-3.2,11.6-3.2,16.5-13.6,16.8c-5-0.3-10.8-0.5-15.4-0.7
		C366.8,308.3,354.8,297.3,351.1,292.8"/>
	<path class="st2" d="M444.1,422.9c-3.4-0.1-16,0.7-27.8,1l0-2c5-0.3,8.5-0.9,8.5-8.5c0.5-8.7,0.8-55.8,0.4-70.4
		c-0.3-5.9-2.5-8.6-7.2-8.7l0-1.9c17.5,1.1,39.3,1.3,51.9-0.9c-0.6,4.5-1.8,12.6-2.2,17.5c0,0.1-1.9-0.1-1.9,0
		c0.8-12.6-10.9-12.3-19.5-13.2c-8.9-0.9-8.7,5.5-8.8,8.5c-0.3,3.9-0.6,23.6-0.7,26.4c11.8,0.7,28.2-0.4,34.2-4.3l0.8,1.3
		c-7.5,5.7-19,9.6-35.1,10.5c-0.2,3.1-0.2,21.8,0.1,26.5c0.3,4.7-0.9,13.8,11.8,13.7c12.7-0.1,23.8,0.7,29.4-11.9l1.7,0.6
		c-3.2,11.6-3.2,16.5-13.6,16.8C457.9,423.4,447.5,423,444.1,422.9"/>
	<path class="st2" d="M392.5,373.8c-8.6,4.3-19.9,6.5-36.3,6c-0.3,3.6,0.1,27.8,0.6,32.3c0.7,8.8,6.1,9.3,10.9,9.4v1.9
		c-8.4-0.2-20.5-0.3-32.3,0.1v-1.9c4.6-0.4,8.6-0.4,9.2-8.5c0.8-8.6,0.2-56.6-0.5-70.7c-0.4-6.1-3.9-8.2-9.7-8.2V332
		c9.5,0.7,23.8,0.6,32.1-0.1v2c-8.9,0-10.4,5.7-10.2,9.8c0,4.1-0.4,25.2-0.5,28.1c7.2-0.1,25.6,1.4,36.6-1.4
		c-0.1-2.9-0.7-21.8-0.7-25.9c-0.2-4.6-3-10.3-11.2-10.5v-2c8.3,0.7,22.5,0.8,32.1,0.1v2.1c-5.4-0.2-8.5,1.8-8.6,8.2
		c-0.7,14.2-0.6,61.5,0.3,70.1c0.5,9,5.6,8.8,9.4,9.1v1.9c-11.9-0.4-24.3-0.2-32.7-0.1v-1.9c2.8,0.3,9.7-0.4,10.8-9.2
		C392.2,407.8,392.8,377.4,392.5,373.8"/>
</g>
</svg>
