<?xml version="1.0" encoding="utf-8"?>
<!-- Generator: Adobe Illustrator 19.2.1, SVG Export Plug-In . SVG Version: 6.00 Build 0)  -->
<svg version="1.1" id="layer" xmlns="http://www.w3.org/2000/svg" xmlns:xlink="http://www.w3.org/1999/xlink" x="0px" y="0px"
	 viewBox="0 0 652 652" style="enable-background:new 0 0 652 652;" xml:space="preserve">
<style type="text/css">
	.st0{clip-path:url(#SVGID_2_);fill:url(#SVGID_3_);}
	.st1{fill:#FFFFFF;}
</style>
<g>
	<defs>
		<path id="SVGID_1_" d="M26.5,327.2c0,34.9,28.3,63.2,63.3,63.2c34.9,0,63.2-28.3,63.2-63.2c0-34.9-28.3-63.2-63.2-63.2
			C54.9,264,26.5,292.3,26.5,327.2"/>
	</defs>
	<clipPath id="SVGID_2_">
		<use xlink:href="#SVGID_1_"  style="overflow:visible;"/>
	</clipPath>
	
		<linearGradient id="SVGID_3_" gradientUnits="userSpaceOnUse" x1="42.3711" y1="729.4517" x2="47.9862" y2="729.4517" gradientTransform="matrix(0 22.2733 22.2733 0 -16157.5098 -677.7598)">
		<stop  offset="0" style="stop-color:#EA5514"/>
		<stop  offset="0.5786" style="stop-color:#E62550"/>
		<stop  offset="1" style="stop-color:#E3007F"/>
	</linearGradient>
	<rect x="26.5" y="264" class="st0" width="126.5" height="126.5"/>
</g>
<path class="st1" d="M79,303.8l40.6,23.4L79,350.7V303.8z M73.5,294.4v65.7l56.9-32.9L73.5,294.4z"/>
<path class="st1" d="M65.9,311L94,327.2l-28.2,16.3V311z M60.4,301.5v51.4l44.5-25.7L60.4,301.5z"/>
<path d="M200.3,327.9c4.5,0,7.4-2.5,7.4-6.1v-0.1c0-4-2.9-6.1-7.4-6.1h-7v12.3H200.3z M187.3,310.1h13.5c8,0,13,4.6,13,11.5v0.1
	c0,7.7-6.2,11.7-13.7,11.7h-6.8v11h-6V310.1z M228.8,310.1h6v28.8h18v5.5h-24V310.1z M266.4,329.8v-19.7h6v19.5
	c0,6.4,3.3,9.8,8.7,9.8c5.3,0,8.6-3.2,8.6-9.5v-19.7h6v19.4c0,10.2-5.8,15.4-14.7,15.4C272.1,344.9,266.4,339.8,266.4,329.8
	 M327.6,327.1c4.3,0,7.1-2.3,7.1-5.7v-0.1c0-3.7-2.6-5.7-7.1-5.7h-8.8v11.5H327.6z M312.8,310.1h15.3c4.3,0,7.7,1.3,9.9,3.4
	c1.8,1.9,2.8,4.4,2.8,7.4v0.1c0,5.6-3.4,9-8.2,10.4l9.3,13h-7.1l-8.4-11.9h-7.5v11.9h-6V310.1z M377.7,330.8l-5.9-13.7l-5.9,13.7
	H377.7z M369.1,309.9h5.6l15.1,34.5h-6.4l-3.5-8.3h-16.2l-3.5,8.3H354L369.1,309.9z M404.5,310.1h6v28.8h18v5.5h-24V310.1z
	 M441.2,339.4l3.6-4.3c3.3,2.8,6.6,4.5,10.8,4.5c3.7,0,6.1-1.7,6.1-4.3v-0.1c0-2.5-1.4-3.8-7.7-5.2c-7.3-1.8-11.4-3.9-11.4-10.2
	v-0.1c0-5.9,4.9-9.9,11.7-9.9c5,0,9,1.5,12.4,4.3l-3.2,4.6c-3.1-2.3-6.2-3.5-9.3-3.5c-3.5,0-5.6,1.8-5.6,4.1v0.1
	c0,2.6,1.6,3.8,8.1,5.4c7.2,1.8,11,4.4,11,10v0.1c0,6.4-5,10.2-12.2,10.2C450.3,344.9,445.4,343.1,441.2,339.4 M484,310.1h6v34.3h-6
	V310.1z M506.5,327.3L506.5,327.3c0-9.7,7.4-17.8,17.7-17.8c6,0,9.7,1.7,13.2,4.7l-3.8,4.5c-2.6-2.3-5.2-3.7-9.6-3.7
	c-6.3,0-11.1,5.5-11.1,12.1v0.1c0,7,4.6,12.2,11.7,12.2c3.2,0,6.2-1,8.3-2.6v-6.4H524v-5.2h14.6v14.4c-3.4,2.9-8.2,5.3-14.3,5.3
	C513.5,345,506.5,337.3,506.5,327.3 M555.2,310.1h6v14.3h16.4v-14.3h6v34.3h-6v-14.4h-16.4v14.4h-6V310.1z M626.5,310.1v5.6h-10.9
	v28.7h-6.1v-28.7h-10.9v-5.6H626.5z"/>
</svg>
