<svg xmlns="http://www.w3.org/2000/svg" viewBox="0 0 206 90"><defs><style>.a{fill:#018ac0;}.b{fill:#282828;}.c{fill:#fff;}</style></defs><title>logo</title><path class="a" d="M93.21,36.51c0-17,38.12-28.35,50.47-31,29-6.13,51.58-9.07,58.51,1.31,12.28,18.4-8.5,66.76-14.76,75.58-4.67,6.65-10.77,8.71-18.39,7C139.4,82.64,93.21,57.56,93.21,36.51Z"/><path class="b" d="M1.57,46.08a22.22,22.22,0,0,0,8,1.57c3.32,0,5.08-1.08,5.08-2.73s-1.52-2.47-5.36-3.52C4,39.89.48,37.57.48,33.9c0-4.31,4.6-7.57,12.1-7.57a22.76,22.76,0,0,1,8.16,1.28l-1.61,4.57A18.18,18.18,0,0,0,12.49,31c-3.14,0-4.66,1.16-4.66,2.44,0,1.61,1.76,2.32,5.94,3.55C19.42,38.62,22,41,22,44.51c0,4.23-4.09,7.83-12.87,7.83A25.45,25.45,0,0,1,.1,50.76Z"/><path class="b" d="M45.75,41.28H29.9v6H43.05V52H22.68V26.71h19.7v4.68H29.9v5.25H45.75Z"/><path class="b" d="M68,51.29a26.25,26.25,0,0,1-8.17,1.09c-11.06,0-16.75-5.48-16.75-12.67,0-8.62,7.78-13.38,17.46-13.38a22.13,22.13,0,0,1,7.88,1.13L66.87,32A19,19,0,0,0,60.8,31c-5.7,0-10.16,2.73-10.16,8.35,0,5.06,3.8,8.24,10.21,8.24a21.25,21.25,0,0,0,6.07-.82Z"/><path class="c" d="M145.1,41.28H129.25v6H142.4V52H122V26.71h19.7v4.68H129.25v5.25H145.1Z"/><path class="c" d="M167.32,51.29a26.25,26.25,0,0,1-8.17,1.09c-11.06,0-16.75-5.48-16.75-12.67,0-8.62,7.78-13.38,17.46-13.38a22.09,22.09,0,0,1,7.88,1.13L166.22,32a19,19,0,0,0-6.07-.93c-5.7,0-10.16,2.73-10.16,8.35,0,5.06,3.8,8.24,10.21,8.24a21.25,21.25,0,0,0,6.07-.82Z"/><path class="b" d="M75.93,29.74V41.2c0,4.37,2.14,6.58,5.79,6.58s5.88-2.09,5.88-6.58V29.82l7.21-3.12V40.86c0,7.79-5,11.49-13.33,11.49-8.06,0-12.76-3.55-12.76-11.57V27.42Z"/><path class="c" d="M105.49,31.4H96.86V26.58h24.58V31.4H112.7V51.94h-7.21Z"/><path class="b" d="M.25,58.69A3.33,3.33,0,0,0,1.7,59c.69,0,1.08-.29,1.08-.73s-.3-.64-1.06-.89C.73,57.09.1,56.62.1,55.85s.82-1.54,2.12-1.54a3.47,3.47,0,0,1,1.43.27l-.26.79a2.74,2.74,0,0,0-1.2-.26c-.69,0-1,.33-1,.65s.34.6,1.14.88c1,.35,1.54.82,1.54,1.59s-.73,1.61-2.26,1.61A3.85,3.85,0,0,1,0,59.5Z"/><path class="b" d="M11.63,57.37H9.37V59H11.9v.8H8.28V54.4h3.48v.8H9.37v1.38h2.26Z"/><path class="b" d="M21.06,59.51a6.8,6.8,0,0,1-1.92.3,3.51,3.51,0,0,1-2.36-.72,2.57,2.57,0,0,1-.83-2c0-1.7,1.35-2.78,3.33-2.78a4.3,4.3,0,0,1,1.59.26l-.24.78a3.51,3.51,0,0,0-1.36-.23,1.91,1.91,0,0,0-2.17,1.92A1.87,1.87,0,0,0,19.18,59a2.39,2.39,0,0,0,.82-.1V57.57H18.94V56.8h2.12Z"/><path class="b" d="M26.67,54.4v3.12c0,1,.48,1.53,1.22,1.53s1.26-.48,1.26-1.53V54.4h1.09v3.06a2.14,2.14,0,0,1-2.38,2.38,2.08,2.08,0,0,1-2.29-2.38V54.4Z"/><path class="b" d="M34.9,54.48a9.66,9.66,0,0,1,1.66-.12,3,3,0,0,1,1.84.43,1.29,1.29,0,0,1,.52,1.08,1.43,1.43,0,0,1-1.09,1.33v0a1.37,1.37,0,0,1,.83,1,11.87,11.87,0,0,0,.47,1.49H38a6.12,6.12,0,0,1-.4-1.26c-.18-.7-.45-.92-1.07-.94H36v2.2H34.9ZM36,56.84h.65c.73,0,1.19-.35,1.19-.89s-.46-.85-1.17-.85a4.08,4.08,0,0,0-.67,0Z"/><path class="b" d="M44.45,54.4v5.35H43.36V54.4Z"/><path class="b" d="M49.12,54.47a12.53,12.53,0,0,1,1.74-.11,4,4,0,0,1,2.43.61,2.32,2.32,0,0,1,.94,2,2.62,2.62,0,0,1-.93,2.13,4.37,4.37,0,0,1-2.71.73,13.43,13.43,0,0,1-1.47-.07ZM50.21,59a3.58,3.58,0,0,0,.6,0c1.42,0,2.27-.7,2.27-2.06,0-1.18-.76-1.86-2.13-1.86a3.28,3.28,0,0,0-.74.06Z"/><path class="b" d="M59.65,58.24l-.51,1.51H58l1.92-5.35h1.39l2,5.35H62.09l-.55-1.51Zm1.72-.75-.48-1.31c-.11-.33-.21-.69-.3-1h0c-.09.31-.19.68-.29,1l-.46,1.31Z"/><path class="b" d="M67.51,54.47a12.63,12.63,0,0,1,1.74-.11,3.93,3.93,0,0,1,2.43.61,2.3,2.3,0,0,1,.94,2,2.62,2.62,0,0,1-.93,2.13,4.35,4.35,0,0,1-2.71.73,13.43,13.43,0,0,1-1.47-.07ZM68.6,59a3.58,3.58,0,0,0,.6,0c1.42,0,2.27-.7,2.27-2.06,0-1.18-.76-1.86-2.12-1.86a3.32,3.32,0,0,0-.75.06Z"/><path class="b" d="M84,54.4v5.35H82.89V54.4Z"/><path class="b" d="M88.64,59.75V54.4h1.25l1.54,2.29a15.1,15.1,0,0,1,1,1.8h0a19.68,19.68,0,0,1-.1-2.23V54.4h1v5.35H92.25l-1.56-2.36a16.52,16.52,0,0,1-1.07-1.84h0c0,.7.07,1.4.07,2.29v1.91Z"/><path class="b" d="M99.2,55.21H97.5V54.4H102v.81h-1.72v4.54H99.2Z"/><path class="c" d="M111.06,57.37H108.8V59h2.52v.8h-3.61V54.4h3.48v.8H108.8v1.38h2.26Z"/><path class="c" d="M115.69,54.4h1.09v4.53h2.46v.82h-3.55Z"/><path class="c" d="M124.57,54.4v5.35h-1.09V54.4Z"/><path class="c" d="M134,59.51a6.8,6.8,0,0,1-1.92.3,3.46,3.46,0,0,1-2.35-.72,2.54,2.54,0,0,1-.83-2c0-1.7,1.35-2.78,3.32-2.78a4.41,4.41,0,0,1,1.6.26l-.25.78a3.42,3.42,0,0,0-1.35-.23,1.92,1.92,0,0,0-2.18,1.92A1.88,1.88,0,0,0,132.14,59a2.39,2.39,0,0,0,.82-.1V57.57h-1.05V56.8H134Z"/><path class="c" d="M141.9,57.37h-2.26V59h2.52v.8h-3.61V54.4H142v.8h-2.39v1.38h2.26Z"/><path class="c" d="M146.52,59.75V54.4h1.25l1.55,2.29a16.63,16.63,0,0,1,1,1.8h0a19.68,19.68,0,0,1-.1-2.23V54.4h1v5.35h-1.14l-1.56-2.36a20.37,20.37,0,0,1-1.07-1.84h0c0,.7.06,1.4.06,2.29v1.91Z"/><path class="c" d="M157.08,55.21h-1.7V54.4h4.52v.81h-1.72v4.54h-1.1Z"/><path class="c" d="M167.36,57.37H165.1V59h2.52v.8H164V54.4h3.48v.8H165.1v1.38h2.26Z"/></svg>